<svg xmlns="http://www.w3.org/2000/svg" viewBox="0 0 1000 1000" width="1000" height="1000">
  <defs>
    <filter id="glow" x="-20%" y="-20%" width="140%" height="140%">
      <feGaussianBlur stdDeviation="1.6" result="b"/>
      <feMerge>
        <feMergeNode in="b"/>
        <feMergeNode in="SourceGraphic"/>
      </feMerge>
    </filter>
    <radialGradient id="fade" cx="50%" cy="50%" r="62%">
      <stop offset="0%" stop-color="white" stop-opacity="0.55"/>
      <stop offset="45%" stop-color="white" stop-opacity="0.72"/>
      <stop offset="100%" stop-color="white" stop-opacity="1"/>
    </radialGradient>
    <mask id="maskFade">
      <rect width="1000" height="1000" fill="url(#fade)"/>
    </mask>
  </defs>

  <g mask="url(#maskFade)" filter="url(#glow)" stroke-linecap="round" stroke-linejoin="round" fill="none">
    <path d="M 570.3,500.0 L 563.2,523.0 L 556.7,547.6 L 535.9,562.2 L 511.5,565.1 L 488.0,568.1 L 464.2,562.0 L 448.6,543.2 L 454.8,516.4 L 431.9,500.0 L 455.2,483.7 L 464.3,470.0 L 475.6,457.8 L 488.5,434.6 L 511.6,434.2 L 531.9,444.7 L 534.3,471.2 L 540.8,485.2 Z" stroke="rgba(255,255,255,0.35)" stroke-width="2.4"/>
    <path d="M 500.0,500.0 L 562.5,491.6 L 649.6,509.5 L 725.8,489.9 L 779.5,489.4 L 842.7,508.1 L 923.4,509.4" stroke="rgba(255,255,255,0.340)" stroke-width="0.8"/>
    <path d="M 654.7,510.8 L 693.4,487.7 L 717.4,480.0 L 755.9,442.8 L 794.0,431.0" stroke="rgba(255,255,255,0.217)" stroke-width="0.6"/>
    <path d="M 673.0,493.0 L 704.6,484.1 L 715.1,494.6 L 750.1,488.7 L 765.5,491.0" stroke="rgba(255,255,255,0.273)" stroke-width="0.6"/>
    <path d="M 500.0,500.0 L 566.7,497.5 L 638.9,511.0 L 714.7,542.9 L 792.1,546.0 L 860.8,554.9 L 945.5,576.0" stroke="rgba(255,255,255,0.352)" stroke-width="0.8"/>
    <path d="M 724.2,538.4 L 771.0,529.2 L 806.7,536.5 L 844.3,534.0 L 896.1,523.9" stroke="rgba(255,255,255,0.224)" stroke-width="0.9"/>
    <path d="M 500.0,500.0 L 586.0,544.6 L 656.8,573.4 L 764.6,615.3 L 821.5,633.9 L 926.8,685.0 L 1001.6,720.3" stroke="rgba(255,255,255,0.424)" stroke-width="1.8"/>
    <path d="M 728.1,586.3 L 771.1,594.7 L 792.8,620.7 L 837.2,630.1 L 871.0,647.8" stroke="rgba(255,255,255,0.319)" stroke-width="1.2"/>
    <path d="M 769.4,622.0 L 810.8,618.1 L 840.2,615.5 L 874.8,606.7 L 920.3,603.3" stroke="rgba(255,255,255,0.161)" stroke-width="0.9"/>
    <path d="M 500.0,500.0 L 579.9,569.3 L 626.0,605.5 L 693.1,691.8 L 751.8,728.5 L 809.9,786.9 L 877.3,859.0" stroke="rgba(255,255,255,0.350)" stroke-width="0.8"/>
    <path d="M 608.3,602.3 L 611.4,634.9 L 641.1,644.0 L 643.8,668.7 L 656.0,702.3" stroke="rgba(255,255,255,0.283)" stroke-width="1.2"/>
    <path d="M 617.9,614.0 L 653.1,628.3 L 692.0,658.8 L 721.9,670.6 L 764.5,694.5" stroke="rgba(255,255,255,0.264)" stroke-width="1.2"/>
    <path d="M 500.0,500.0 L 533.6,557.2 L 588.8,637.3 L 632.2,691.2 L 673.7,773.1 L 726.7,850.0 L 783.7,902.5" stroke="rgba(255,255,255,0.218)" stroke-width="1.4"/>
    <path d="M 610.1,657.6 L 626.8,691.7 L 639.8,734.2 L 647.4,778.5 L 670.7,814.6" stroke="rgba(255,255,255,0.228)" stroke-width="0.9"/>
    <path d="M 500.0,500.0 L 537.5,598.6 L 548.1,658.9 L 588.1,756.6 L 616.1,813.6 L 654.6,903.2 L 687.7,987.2" stroke="rgba(255,255,255,0.316)" stroke-width="1.4"/>
    <path d="M 597.2,730.9 L 638.1,769.6 L 674.0,796.5 L 693.0,818.5 L 733.8,848.0" stroke="rgba(255,255,255,0.298)" stroke-width="0.6"/>
    <path d="M 500.0,500.0 L 486.2,569.8 L 523.7,657.7 L 504.8,728.2 L 525.0,805.1 L 526.7,868.1 L 525.0,942.3" stroke="rgba(255,255,255,0.274)" stroke-width="1.1"/>
    <path d="M 514.5,744.6 L 532.5,781.3 L 543.4,813.1 L 559.8,827.2 L 586.1,863.1" stroke="rgba(255,255,255,0.171)" stroke-width="1.2"/>
    <path d="M 500.0,500.0 L 501.8,580.7 L 474.6,639.7 L 442.6,740.1 L 445.9,806.0 L 420.8,896.9 L 415.3,968.9" stroke="rgba(255,255,255,0.260)" stroke-width="1.4"/>
    <path d="M 476.8,646.9 L 440.7,683.8 L 425.5,708.0 L 398.7,750.6 L 371.6,785.0" stroke="rgba(255,255,255,0.309)" stroke-width="0.6"/>
    <path d="M 450.6,820.6 L 462.7,862.9 L 476.4,903.8 L 464.8,947.1 L 482.7,980.8" stroke="rgba(255,255,255,0.309)" stroke-width="0.9"/>
    <path d="M 500.0,500.0 L 464.9,600.5 L 455.4,660.5 L 412.2,749.0 L 387.7,852.6 L 379.4,932.6 L 340.0,1018.8" stroke="rgba(255,255,255,0.426)" stroke-width="1.4"/>
    <path d="M 450.8,648.3 L 463.1,681.6 L 474.8,725.5 L 478.2,752.7 L 489.2,800.6" stroke="rgba(255,255,255,0.311)" stroke-width="0.6"/>
    <path d="M 500.0,500.0 L 439.7,554.5 L 414.8,615.8 L 352.8,672.6 L 341.3,753.7 L 265.6,790.7 L 238.6,855.0" stroke="rgba(255,255,255,0.367)" stroke-width="1.1"/>
    <path d="M 341.9,725.0 L 333.9,749.4 L 318.3,765.5 L 299.8,767.0 L 275.6,793.7" stroke="rgba(255,255,255,0.308)" stroke-width="1.2"/>
    <path d="M 330.3,731.7 L 303.0,752.2 L 287.1,755.3 L 268.4,775.0 L 248.6,797.4" stroke="rgba(255,255,255,0.216)" stroke-width="0.9"/>
    <path d="M 500.0,500.0 L 419.4,562.1 L 355.2,604.7 L 272.7,678.9 L 212.3,725.8 L 153.5,794.1 L 76.4,838.1" stroke="rgba(255,255,255,0.435)" stroke-width="1.4"/>
    <path d="M 202.6,734.7 L 183.8,734.6 L 166.9,739.4 L 150.1,735.9 L 119.6,746.6" stroke="rgba(255,255,255,0.190)" stroke-width="1.2"/>
    <path d="M 500.0,500.0 L 432.6,553.4 L 370.5,600.5 L 304.3,616.1 L 225.2,685.5 L 174.7,716.1 L 91.5,754.0" stroke="rgba(255,255,255,0.380)" stroke-width="0.8"/>
    <path d="M 298.3,623.7 L 260.2,638.3 L 232.0,651.2 L 196.0,658.9 L 170.6,668.8" stroke="rgba(255,255,255,0.248)" stroke-width="0.9"/>
    <path d="M 392.7,561.9 L 359.5,577.1 L 322.0,594.2 L 303.3,617.0 L 262.9,627.5" stroke="rgba(255,255,255,0.265)" stroke-width="0.6"/>
    <path d="M 500.0,500.0 L 422.0,508.7 L 351.8,537.1 L 246.4,581.0 L 158.3,576.9 L 106.2,620.6 L 6.5,639.9" stroke="rgba(255,255,255,0.314)" stroke-width="0.8"/>
    <path d="M 196.6,582.8 L 175.2,612.9 L 145.7,634.2 L 103.1,657.7 L 79.4,674.5" stroke="rgba(255,255,255,0.243)" stroke-width="1.2"/>
    <path d="M 500.0,500.0 L 436.9,503.9 L 359.6,516.9 L 290.7,519.8 L 213.7,535.9 L 126.0,535.2 L 46.3,532.7" stroke="rgba(255,255,255,0.408)" stroke-width="1.8"/>
    <path d="M 188.9,522.2 L 166.9,536.2 L 139.9,542.1 L 110.2,539.8 L 90.0,556.9" stroke="rgba(255,255,255,0.198)" stroke-width="0.9"/>
    <path d="M 319.8,503.6 L 286.3,510.9 L 265.0,526.3 L 239.5,533.9 L 213.6,555.7" stroke="rgba(255,255,255,0.222)" stroke-width="0.9"/>
    <path d="M 500.0,500.0 L 394.3,487.8 L 326.0,447.4 L 250.8,415.1 L 142.6,410.6 L 70.3,372.0 L -30.2,344.8" stroke="rgba(255,255,255,0.322)" stroke-width="1.1"/>
    <path d="M 240.6,423.4 L 207.2,408.8 L 179.8,398.0 L 151.1,379.5 L 133.9,367.6" stroke="rgba(255,255,255,0.266)" stroke-width="1.2"/>
    <path d="M 343.5,463.5 L 313.6,464.3 L 287.3,474.5 L 259.7,477.7 L 237.7,470.4" stroke="rgba(255,255,255,0.200)" stroke-width="0.9"/>
    <path d="M 500.0,500.0 L 437.0,489.5 L 365.7,448.4 L 316.8,420.0 L 251.4,402.2 L 167.0,340.2 L 113.4,329.0" stroke="rgba(255,255,255,0.260)" stroke-width="1.1"/>
    <path d="M 275.5,393.3 L 237.3,372.1 L 217.4,339.0 L 187.3,332.8 L 149.4,300.2" stroke="rgba(255,255,255,0.253)" stroke-width="0.6"/>
    <path d="M 225.6,387.6 L 177.7,377.5 L 148.5,358.5 L 104.0,347.7 L 58.2,339.6" stroke="rgba(255,255,255,0.256)" stroke-width="1.2"/>
    <path d="M 500.0,500.0 L 437.0,437.2 L 351.0,380.7 L 280.7,322.3 L 219.8,282.4 L 119.9,230.0 L 60.9,156.1" stroke="rgba(255,255,255,0.377)" stroke-width="1.8"/>
    <path d="M 352.1,387.4 L 327.4,356.1 L 298.2,328.0 L 257.9,290.5 L 231.3,265.0" stroke="rgba(255,255,255,0.205)" stroke-width="0.6"/>
    <path d="M 297.3,338.2 L 278.4,313.4 L 259.5,292.6 L 236.1,269.8 L 222.2,252.9" stroke="rgba(255,255,255,0.272)" stroke-width="1.2"/>
    <path d="M 500.0,500.0 L 474.2,428.7 L 424.0,386.9 L 383.5,337.8 L 337.5,274.3 L 300.8,203.7 L 248.3,162.0" stroke="rgba(255,255,255,0.301)" stroke-width="1.1"/>
    <path d="M 400.5,363.1 L 388.0,334.5 L 369.7,308.1 L 343.2,280.0 L 330.7,262.4" stroke="rgba(255,255,255,0.210)" stroke-width="0.6"/>
    <path d="M 500.0,500.0 L 477.5,401.5 L 450.0,317.2 L 415.3,247.2 L 386.2,167.7 L 365.4,55.7 L 324.1,-24.4" stroke="rgba(255,255,255,0.245)" stroke-width="1.4"/>
    <path d="M 384.8,172.3 L 373.8,156.3 L 350.2,126.9 L 315.5,111.8 L 305.4,97.3" stroke="rgba(255,255,255,0.230)" stroke-width="0.9"/>
    <path d="M 500.0,500.0 L 503.7,429.0 L 487.3,356.1 L 448.2,294.2 L 435.4,206.7 L 441.6,142.2 L 427.2,79.1" stroke="rgba(255,255,255,0.230)" stroke-width="1.1"/>
    <path d="M 466.7,260.6 L 461.0,236.8 L 467.4,194.8 L 455.4,170.0 L 448.4,136.9" stroke="rgba(255,255,255,0.176)" stroke-width="1.2"/>
    <path d="M 457.0,228.6 L 442.7,200.7 L 424.5,190.4 L 410.4,156.3 L 395.6,144.7" stroke="rgba(255,255,255,0.273)" stroke-width="0.9"/>
    <path d="M 500.0,500.0 L 519.1,435.6 L 535.0,345.2 L 542.7,276.7 L 546.5,183.0 L 566.9,116.5 L 573.8,22.1" stroke="rgba(255,255,255,0.218)" stroke-width="1.1"/>
    <path d="M 550.0,198.9 L 567.3,169.7 L 583.9,143.8 L 604.6,121.8 L 621.7,97.8" stroke="rgba(255,255,255,0.166)" stroke-width="1.2"/>
    <path d="M 500.0,500.0 L 517.7,412.5 L 570.0,366.5 L 582.8,297.9 L 624.8,215.1 L 625.2,119.6 L 660.2,63.3" stroke="rgba(255,255,255,0.318)" stroke-width="1.1"/>
    <path d="M 605.8,192.9 L 613.1,161.5 L 633.4,139.6 L 659.4,104.4 L 667.7,79.5" stroke="rgba(255,255,255,0.239)" stroke-width="1.2"/>
    <path d="M 590.7,252.4 L 582.3,222.8 L 589.2,215.9 L 586.7,176.7 L 576.8,164.7" stroke="rgba(255,255,255,0.234)" stroke-width="1.2"/>
    <path d="M 500.0,500.0 L 546.1,429.2 L 581.3,342.4 L 616.7,274.6 L 659.2,230.8 L 708.0,129.5 L 750.2,75.7" stroke="rgba(255,255,255,0.377)" stroke-width="1.1"/>
    <path d="M 632.7,267.3 L 669.6,239.3 L 714.7,226.5 L 750.0,206.3 L 783.3,185.7" stroke="rgba(255,255,255,0.226)" stroke-width="0.9"/>
    <path d="M 622.3,290.5 L 627.7,270.9 L 622.0,232.9 L 638.2,224.1 L 636.3,192.5" stroke="rgba(255,255,255,0.309)" stroke-width="0.9"/>
    <path d="M 500.0,500.0 L 559.0,433.7 L 636.7,399.9 L 700.0,310.3 L 768.6,258.3 L 835.9,206.4 L 900.8,145.8" stroke="rgba(255,255,255,0.433)" stroke-width="1.8"/>
    <path d="M 790.5,235.0 L 815.5,224.5 L 856.0,212.8 L 886.1,211.2 L 904.9,195.5" stroke="rgba(255,255,255,0.317)" stroke-width="1.2"/>
    <path d="M 500.0,500.0 L 562.8,470.3 L 638.8,447.5 L 686.0,402.0 L 749.3,376.1 L 810.4,340.7 L 876.3,302.1" stroke="rgba(255,255,255,0.219)" stroke-width="1.1"/>
    <path d="M 662.4,420.6 L 710.7,414.2 L 741.0,417.0 L 790.9,416.1 L 826.9,404.6" stroke="rgba(255,255,255,0.259)" stroke-width="0.6"/>
    <path d="M 642.7,422.2 L 668.0,411.7 L 678.3,382.8 L 683.3,371.0 L 705.7,359.3" stroke="rgba(255,255,255,0.167)" stroke-width="0.6"/>
    <path d="M 500.0,500.0 L 570.9,472.4 L 651.9,472.7 L 736.7,443.6 L 786.4,454.0 L 881.3,416.5 L 952.4,411.0" stroke="rgba(255,255,255,0.258)" stroke-width="1.1"/>
    <path d="M 721.1,466.9 L 748.4,452.1 L 782.9,464.1 L 796.4,457.3 L 826.9,441.8" stroke="rgba(255,255,255,0.200)" stroke-width="1.2"/>
    <path d="M 797.1,437.4 L 823.9,433.4 L 857.6,422.3 L 882.7,424.1 L 898.5,415.5" stroke="rgba(255,255,255,0.161)" stroke-width="0.9"/>
  </g>
</svg>
